<svg width="400" height="300" xmlns="http://www.w3.org/2000/svg">
 <g>
  <title>background</title>
  <rect fill="#d35b93" id="canvas_background" height="302" width="402" y="-1" x="-1"/>
 </g>

 <g>
  <title>Layer 1</title>
  <g stroke="null" id="svg_1">
   <g stroke="null" id="svg_2">
    <path stroke="null" id="svg_3" d="m203.52382,64.80952c-18.60846,0 -33.74363,16.56659 -33.74363,36.92936l0,19.13216c0,20.36429 15.13517,36.93087 33.74363,36.93087c18.60983,0 33.74362,-16.56658 33.74362,-36.93087l0,-19.13216c0.00035,-20.36277 -15.13379,-36.92936 -33.74362,-36.92936z"/>
   </g>
  </g>
  <g stroke="null" id="svg_4">
   <g stroke="null" id="svg_5">
    <path stroke="null" id="svg_6" d="m298.80586,206.4573c-13.77251,-17.3497 -35.78634,-30.21227 -61.98599,-36.21854c-0.60753,-0.13928 -1.26437,-0.02083 -1.71694,0.30982c-12.18765,8.88313 -27.33195,15.81364 -31.11803,17.48768c-4.04141,-1.90966 -21.06467,-10.11198 -31.18494,-17.48768c-0.45081,-0.33065 -1.11293,-0.4491 -1.71694,-0.30982c-26.20317,6.00757 -48.21524,18.87015 -61.98247,36.21985c-0.31521,0.39703 -0.31521,0.89039 0,1.28743c19.55024,24.62647 55.89481,39.92462 94.85089,39.92462c38.95785,0 75.30418,-15.29815 94.85442,-39.92462c0.31697,-0.39834 0.31697,-0.8917 0,-1.28874zm-36.3569,9.48454c0,0.70164 -0.90337,1.23797 -1.85077,1.23797l-11.64879,0c-0.94916,0 -1.98461,0.60271 -1.98461,1.30565l0,8.90526c0,0.70034 -0.50716,1.23536 -1.45632,1.23536l-10.46189,0c-0.94916,0 -1.84373,-0.53502 -1.84373,-1.23536l0,-8.90526c-0.00353,-0.70164 -0.65156,-1.30565 -1.60072,-1.30565l-12.15067,0c-0.94916,0 -1.73455,-0.53763 -1.73455,-1.23797l0,-7.66729c0,-0.70165 0.78539,-1.26791 1.73455,-1.26791l12.15067,0c0.94916,0 1.59719,-0.57277 1.59719,-1.27571l0,-8.91567c0,-0.70165 0.89458,-1.25489 1.84373,-1.25489l10.3492,0c0.9474,0 1.57078,0.55324 1.57078,1.25489l0,8.94171c0,0.70294 0.91923,1.24837 1.87015,1.24837l11.76501,0c0.9474,0 1.85077,0.5936 1.85077,1.29524l0,7.64126z"/>
   </g>
  </g>
  <g id="svg_7"/>
  <g id="svg_8"/>
  <g id="svg_9"/>
  <g id="svg_10"/>
  <g id="svg_11"/>
  <g id="svg_12"/>
  <g id="svg_13"/>
  <g id="svg_14"/>
  <g id="svg_15"/>
  <g id="svg_16"/>
  <g id="svg_17"/>
  <g id="svg_18"/>
  <g id="svg_19"/>
  <g id="svg_20"/>
  <g id="svg_21"/>
  <rect id="svg_23" height="2" width="6" y="129.45512" x="-335.49799" stroke-width="1.5" stroke="#000" fill="#fff"/>
 </g>
</svg>